<svg xmlns="http://www.w3.org/2000/svg" viewBox="0 0 512 512" role="img" aria-label="Flappy Bird Club icon">
  <defs>
    <linearGradient id="bg" x1="0" x2="0" y1="0" y2="1">
      <stop offset="0%" stop-color="#17324a" />
      <stop offset="100%" stop-color="#2f6d8f" />
    </linearGradient>
    <linearGradient id="sun" x1="0" x2="1" y1="0" y2="1">
      <stop offset="0%" stop-color="#ffe59f" />
      <stop offset="100%" stop-color="#f6b33c" />
    </linearGradient>
  </defs>
  <rect width="512" height="512" rx="120" fill="url(#bg)" />
  <circle cx="390" cy="126" r="68" fill="url(#sun)" opacity="0.94" />
  <path d="M0 352c74-28 145-42 214-42 83 0 173 20 298 68v134H0Z" fill="#78c38f" />
  <path d="M0 388c98-36 190-44 278-26 79 16 151 48 234 96v54H0Z" fill="#3f9967" />
  <g transform="translate(120 168)">
    <ellipse cx="114" cy="82" rx="92" ry="72" fill="#f8d348" />
    <ellipse cx="88" cy="102" rx="42" ry="28" fill="#eea831" />
    <path d="M180 70 250 84 180 116Z" fill="#ef7d21" />
    <ellipse cx="132" cy="58" rx="18" ry="18" fill="#fffdf8" />
    <circle cx="138" cy="58" r="7" fill="#17324a" />
    <path d="M50 72c-16-6-30-8-44-5 14-22 40-32 67-26-10 6-18 17-23 31Z" fill="#fff5c8" opacity="0.8" />
  </g>
</svg>
